<?xml version="1.0" encoding="UTF-8"?>
<!DOCTYPE svg PUBLIC "-//W3C//DTD SVG 1.0//EN" "http://www.w3.org/TR/2001/REC-SVG-20010904/DTD/svg10.dtd">
<!-- Creator: Corel DESIGNER -->
<svg xmlns="http://www.w3.org/2000/svg" xml:space="preserve" width="400mm" height="400mm" version="1.0" style="shape-rendering:geometricPrecision; text-rendering:geometricPrecision; image-rendering:optimizeQuality; fill-rule:evenodd; clip-rule:evenodd"
viewBox="0 0 40000 40000"
 xmlns:xlink="http://www.w3.org/1999/xlink"
 xmlns:xodm="http://www.corel.com/coreldraw/odm/2003">
 <defs>
  <style type="text/css">
   <![CDATA[
    .fil0 {fill:#C4F176}
    .fil1 {fill:#FBFBFC}
   ]]>
  </style>
 </defs>
 <g id="Layer_x0020_1">
  <metadata id="CorelCorpID_0Corel-Layer"/>
  <g id="_2181655370720">
   <path class="fil0" d="M1038.28 8342.85c-4.62,-1422.53 896.84,-2332.41 2852.54,-2543.1 111.78,-12.04 196.53,-105.38 197.57,-217.76l10.17 -1096.93c8.72,-940.75 854.97,-1513.48 1718.98,-1512.25 2815.91,4.04 5631.55,31.12 8447.31,46.67 1022.01,29.35 1492.53,492.91 1743.24,1578.88 120.24,520.81 756.09,664.12 1153.24,638.07l2129.02 -139.59c-624.15,177.55 -1243.72,371.47 -1859.73,575.31 -83.3,27.57 -162.16,61.36 -243.86,89.77 -226.8,65.79 -442.66,143.48 -664.71,220.48 -92.95,32.22 -185.55,65.18 -277.87,98.76l-12352.8 765.49c-960.02,59.47 -1363.48,552.34 -1364.11,1143.46l-21.04 19908.67c-0.54,512.07 564.1,1287.9 1388.72,1236.82l7190.37 -449.52 -15.92 64.02c-99.17,397.48 -201.15,795.62 -310.67,1191.17l-7411.75 416.96c-1465.74,82.45 -2240.06,-983.36 -2242.91,-1859.5l-65.79 -20155.88zm31666.15 -4125.55l4137.68 -271.3c1465.16,-96.06 2132.86,764.27 2135.43,1640.48l60.71 20703.45c4.16,1422.43 -777.02,2104.14 -2739.98,2214.56l-6229.06 350.42c236.86,-236.65 471.16,-482.31 712.42,-740.12 209.23,-223.57 412.6,-456.47 606.83,-697.99l4959.02 -310.02c960.01,-59.48 1365.44,-552.31 1364.11,-1143.47l-45.43 -19886.77c-1.15,-512.14 -564.09,-1287.9 -1388.71,-1236.82l-2390.3 148.12c-359.1,-306.98 -761.01,-567.52 -1182.72,-770.54zm-11530.82 18316.76c293.04,79.06 503.87,344.64 500.83,672.09l0 0.02c-3.79,408.98 -339.84,765.68 -746.79,792.66l-96.28 6.38 342.24 -1471.15zm-533.92 2295.09l280.43 -18.58c406.95,-26.98 736.8,285.55 733.01,694.55l0 0.01c-3.8,408.99 -339.85,765.69 -746.8,792.67l-617.81 40.96 351.17 -1509.61zm-11089.71 -6142.19l1892.41 -125.46c406.95,-26.98 736.79,285.56 733.01,694.55l0 0.01c-3.8,409 -339.85,765.7 -746.81,792.68l-1892.41 125.45c-406.95,26.98 -736.79,-285.57 -733,-694.55l0 -0.01c3.79,-409.01 339.84,-765.69 746.8,-792.67zm-21.32 2298.97l1892.41 -125.46c406.95,-26.99 736.8,285.55 733.01,694.56l0 0.01c-3.79,408.98 -339.84,765.68 -746.8,792.66l-1892.41 125.47c-406.95,26.97 -736.8,-285.57 -733.01,-694.56l0 -0.02c3.8,-408.99 339.84,-765.68 746.8,-792.66zm-21.32 2298.97l1892.41 -125.47c406.96,-26.97 736.8,285.57 733,694.56l0 0.02c-3.78,408.99 -339.84,765.69 -746.79,792.66l-1892.41 125.47c-406.95,26.98 -736.8,-285.57 -733.01,-694.57l0 -0.01c3.8,-408.99 339.85,-765.68 746.8,-792.66zm-21.32 2298.97l1892.41 -125.46c163.66,-10.85 314.81,33.24 436.84,116.4 -10.04,45.53 -20.35,91.01 -31.06,136.42 -95.2,403.96 -188,808.09 -281.17,1212.08 -44.91,11.58 -91.16,19.2 -138.39,22.34l-1892.42 125.45c-406.95,26.98 -736.8,-285.57 -733,-694.55l0 -0.01c3.79,-409.01 339.84,-765.69 746.79,-792.67zm14333.73 -3258.37l1192.18 -79.04c4.16,266.28 -8.64,480.04 -155.04,770.19 -109.16,216.34 -219.38,453.04 -347.75,658.53 -19.82,31.71 -40.48,63.41 -61.81,95.04l-641.37 42.52c-406.95,26.97 -736.8,-285.58 -733,-694.56l0 -0.02c3.79,-408.99 339.84,-765.69 746.79,-792.66zm-755.16 2959.06c62.4,-333.88 342.61,-608.31 681.74,-654.76l-87.54 96.51c-195.54,193.98 -392.49,379.78 -594.2,558.25zm-18264.04 -8583.33l1892.41 -125.46c406.96,-26.98 736.8,285.56 733.01,694.55l0 0.02c-3.79,408.99 -339.84,765.69 -746.79,792.66l-1892.42 125.46c-406.94,26.99 -736.8,-285.57 -733,-694.56l0 0c3.79,-409.01 339.84,-765.69 746.79,-792.67zm-21.31 2298.97l1892.41 -125.46c406.96,-26.99 736.8,285.55 733,694.56l0 0c-3.78,408.99 -339.84,765.69 -746.79,792.67l-1892.41 125.46c-406.95,26.98 -736.8,-285.57 -733.01,-694.55l0 -0.01c3.8,-409.01 339.85,-765.7 746.8,-792.67zm-21.32 2298.97l1892.41 -125.47c406.96,-26.98 736.8,285.56 733.01,694.57l0 0.01c-3.79,408.98 -339.85,765.68 -746.8,792.66l-1892.41 125.47c-406.95,26.98 -736.8,-285.57 -733,-694.57l0 -0.01c3.79,-408.99 339.84,-765.68 746.79,-792.66zm-21.32 2298.97l1892.42 -125.46c406.94,-26.98 736.8,285.56 733,694.55l0 0.01c-3.79,409 -339.84,765.7 -746.79,792.68l-1892.41 125.45c-406.96,26.99 -736.8,-285.57 -733.01,-694.55l0 -0.01c3.79,-409.01 339.84,-765.69 746.79,-792.67zm-21.31 2298.97l1892.41 -125.46c406.95,-26.99 736.8,285.55 733,694.56l0 0.01c-3.79,408.98 -339.84,765.68 -746.79,792.66l-1892.41 125.46c-406.96,26.98 -736.8,-285.57 -733.01,-694.55l0 -0.02c3.79,-409 339.85,-765.69 746.8,-792.66zm8976.82 -8676.98c-62.63,-105.47 -98,-230.34 -96.75,-365.8l0 -0.01c2.3,-247.79 126.57,-476.35 314.65,-624.04l-217.9 989.85zm437.93 -1989.38c-283.18,-70.7 -492.46,-314.54 -511.88,-621.55l718.72 -318.06 -206.84 939.61zm19295.13 -427.26l1892.41 -125.47c406.96,-26.98 736.8,285.56 733,694.56l0 0.02c-3.78,408.98 -339.84,765.68 -746.79,792.66l-1892.41 125.46c-403.45,26.76 -731.05,-280.24 -732.96,-684.03 58.49,-68.39 116.15,-136.16 177.82,-196.96 190.31,-187.61 366.41,-390.49 531.86,-602.85 12.29,-1.44 24.65,-2.57 37.07,-3.39zm-21.32 2298.96l1892.41 -125.45c406.95,-26.98 736.8,285.55 733.01,694.55l0 0.01c-3.8,409 -339.85,765.69 -746.79,792.67l-1892.42 125.46c-406.95,26.98 -736.8,-285.57 -733,-694.56l0 0c3.79,-409.01 339.84,-765.69 746.79,-792.68zm-21.32 2298.98l1892.42 -125.47c406.95,-26.98 736.8,285.56 733,694.57l0 0c-3.79,408.99 -339.84,765.69 -746.79,792.67l-1892.41 125.46c-22.23,1.48 -44.22,1.88 -65.94,1.37 -83.18,-442.24 -214.64,-873.46 -396.99,-1282.38 129.79,-117.44 296.26,-194.26 476.71,-206.22zm18.46 2296.33l1852.64 -122.83c406.95,-26.98 736.8,285.56 733.01,694.56l0 0.02c-3.8,408.98 -339.85,765.68 -746.8,792.66l-1892.41 125.46c-9.31,0.62 -18.56,0.99 -27.78,1.26 81.7,-492.22 109.87,-994.26 81.34,-1491.13zm-61.09 2301.6l1892.41 -125.45c406.95,-26.98 736.8,285.55 733.01,694.55l0 0.01c-3.8,408.99 -339.84,765.69 -746.8,792.67l-1892.41 125.46c-247.88,16.43 -467.14,-93.1 -599.83,-273.67 28.99,-70.13 56.87,-140.66 83.57,-211.61 9.73,-25.86 17.49,-48.09 25.95,-74.39l282.67 -878.76c70.1,-26.8 144.49,-43.71 221.43,-48.81zm2161.99 -13914.82c339.1,44.44 594.67,329.82 591.33,690.1l0 0.01c-3.79,409 -339.85,765.69 -746.79,792.67l-231.8 15.37c22.6,-65.18 44.89,-130.56 66.92,-196.12 126.38,-376.03 240.6,-829.3 320.34,-1302.03zm-702.39 2330.27l539.4 -35.76c406.95,-26.98 736.8,285.56 733,694.56l0 0.01c-3.78,408.99 -339.84,765.69 -746.79,792.67l-1345.86 89.23c86.05,-135.9 169.92,-272.55 252.32,-408.72 220.82,-364.89 405.33,-743.44 567.93,-1131.99z"/>
   <path class="fil1" d="M17845.82 29940.25c0,-606.13 339.25,-1663.6 498.11,-2364.66l1452.45 -6243.57c120.01,-218.09 397.37,-235.19 647.38,-319.29 233.88,-78.7 475.81,-158.56 740.23,-226.41 1311.17,-336.46 1583.9,-401.03 3019.42,-401.03 982.47,0 2416.61,431.49 2416.61,1524.31 0,744.47 34.04,1127.65 -322.37,1834.01 -383.15,759.38 -405.12,814.38 -994.02,1571.32l-477.47 526.36c-1460.17,1455.41 -2375.96,1919.79 -4124.67,2976.49 -402.95,243.49 -1586.47,742.09 -2069.61,941.87 -238.2,98.48 -486.22,250.47 -786.06,180.6zm-7956.29 -18403.53c0,805.96 112.03,2178.43 297.45,2974.31 208.9,-17.38 968.06,-531.13 1242.4,-653.71 183.46,-81.97 282.99,-127.59 455.41,-213.79 302.17,-151.12 577.32,-269.72 879.92,-421.38l2680.41 -1186.19c326.42,-136.7 590.74,-246.57 924.64,-376.63 624.1,-243.13 1222.05,-509.41 1869.74,-695.59 175.1,-50.34 301.76,-116.8 469.27,-162.77 834.06,-228.82 1660.19,-572.79 2523.01,-748.76 1892.84,-386.06 2863.46,-709.05 4979.3,-709.05 830.04,0 1896.11,233.21 1896.11,1226.9 0,1040.82 -212,1580.48 -758.23,2401.98 -352.02,529.4 -810.86,1007.42 -1258.72,1455.33 -866.45,866.54 -2369.62,1962.5 -3547.08,2550.27 -467.73,233.5 -902.58,452.04 -1403.13,641.81 -200.75,76.12 -389.07,151.75 -426.38,-65.57 -18.85,-109.73 62.43,-462.44 93.13,-565.22 354.97,-1188.62 770.95,-3206.5 1020.03,-4445.27 74.52,-370.66 183.04,-754.12 183.04,-1192.57 -864.48,201.4 -1726.46,333.13 -2549.26,648.14l-2390.2 881.5c-168.85,67.37 -790.9,312.63 -866.32,434.94l-2112.92 9598.47c-41.35,168.87 -77.18,331.38 -119.25,512.77 -39.69,171.2 -98.79,376.15 -132.28,536.93 -77.49,371.98 -163.39,690.61 -252.91,1048.38 -91.24,364.72 -151.3,728.07 -231.77,1069.47 -249.69,1059.46 -1163.86,5270.47 -1678.62,6128.96 -641.91,1070.6 -1642.84,1837.86 -2625.9,2579.11l-3064.65 2140.39c707.63,0 1997.42,-240.12 2725.21,-360.62 1446.08,-239.37 3067.9,-564.06 4495.67,-969.62 219.24,-62.27 383.49,-108.79 607.78,-173l1210.39 -351.09c207.29,-69.74 386.34,-122.83 585.3,-195.47 180.29,-65.83 416.1,-118.46 604.8,-175.93 575.05,-175.12 1158.35,-402.81 1715.94,-626.35l4326.92 -1919.12c1036.18,-514.77 2057.12,-1048.7 3016.54,-1668.01l2307.26 -1596.53c831.42,-622.06 1341.46,-1155.04 2021.77,-1882.02 691.73,-739.16 1336.19,-1623.01 1696.21,-2579.36l289.55 -900.16c432.89,-1483.47 230.67,-3299.63 -962.57,-4402.57 -89.52,-82.76 -131.78,-97.85 -223.57,-185.41 -275.19,-262.49 -589.96,-445.02 -956.28,-605.24 -1031.96,-451.32 -2374.53,-519.58 -2529.22,-593.78 62.89,-235.51 694.57,-458.25 917.51,-569.65 169.22,-84.53 310.56,-172.64 473.81,-269.79l1404.45 -900.61c578.73,-394.32 1159.16,-858.22 1656.8,-1354.7 138.76,-138.44 209.36,-248.45 353.25,-390.32 431.78,-425.67 812.34,-1028.2 1127.64,-1549.24 347.04,-573.43 585.11,-1196.64 800.92,-1838.8 221.08,-657.87 461.98,-1922.81 301.08,-2616.17 -113.29,-488.22 -177.05,-755.69 -379.75,-1144.6 -402.6,-772.44 -1257.74,-1397.47 -2105.97,-1649.09 -1457.05,-432.24 -3155.15,-316.48 -4650.29,-123.82 -1165.11,150.13 -2385.25,278.77 -3515.38,499.95 -871.94,170.65 -1754.53,337.8 -2607.98,552.22 -928.79,233.3 -1849.46,513.27 -2755.96,813.23 -114.38,37.85 -176.36,71.38 -301.35,107.62 -236.49,68.57 -361.92,117.73 -585.49,195.27 -1292.81,448.29 -2514.91,1038.65 -3733.67,1620.09l-689.26 351.73c-180.31,91.51 -320.24,187.14 -495.64,285.12 -99.37,55.49 -180.16,85.98 -270.52,138.44l-492.26 288.5c-405.32,262.43 -817.05,504.05 -1173.61,834.04 -149.02,137.92 -306.27,236.59 -306.27,511.7z"/>
  </g>
 </g>
</svg>
