<?xml version="1.0" encoding="UTF-8"?>
<!DOCTYPE svg PUBLIC "-//W3C//DTD SVG 1.0//EN" "http://www.w3.org/TR/2001/REC-SVG-20010904/DTD/svg10.dtd">
<!-- Creator: Corel DESIGNER -->
<svg xmlns="http://www.w3.org/2000/svg" xml:space="preserve" width="800mm" height="180mm" version="1.0" style="shape-rendering:geometricPrecision; text-rendering:geometricPrecision; image-rendering:optimizeQuality; fill-rule:evenodd; clip-rule:evenodd"
viewBox="0 0 80000 18000"
 xmlns:xlink="http://www.w3.org/1999/xlink"
 xmlns:xodm="http://www.corel.com/coreldraw/odm/2003">
 <defs>
  <style type="text/css">
   <![CDATA[
    .fil2 {fill:none}
    .fil0 {fill:#C4F176}
    .fil1 {fill:#FBFBFC}
   ]]>
  </style>
 </defs>
 <g id="Layer_x0020_1">
  <metadata id="CorelCorpID_0Corel-Layer"/>
  <g id="_2181698409888">
   <path class="fil0" d="M8770.65 17284.13c1871.38,-314.54 4117.4,-1062.45 6868.44,-2394.41 15882.48,-857.63 31863.06,-1088.34 48003.98,-294.36l64.49 543.9c-18209.99,326.59 -36513.74,1009.12 -54936.91,2144.87z"/>
   <path class="fil1" d="M19564.96 11309.28c-198.73,-23.1 -407.06,-31.5 -514.23,-280.75 -100.79,-234.41 -68.71,-417.32 -38.65,-675.9 99.68,-857.52 788.19,-2254.96 1438.13,-2856.65l646.49 -474.98c332.73,-172.5 457.47,-149.91 805.78,-109.42 210.09,24.42 521.94,151.76 494.3,389.51 -13.32,114.61 -69.25,224.34 -106.4,335.27 -33.45,99.94 -77.71,209.28 -119.15,319.17l-504.66 1241.21c-307.66,743.53 -762.43,1533.83 -1468.5,1949.41 -133.42,78.51 -431.72,186.55 -633.11,163.13zm17007.72 -450.94c-237.79,-27.64 -423.21,-24.63 -546.85,-310.7 -97.89,-226.49 -72.07,-434.93 -42.22,-691.66 95.07,-817.85 645.92,-1806.97 1073.41,-2307.56 257.38,-301.39 625.18,-652.83 976.74,-832.79 350.65,-179.51 457.38,-158.44 777.88,-121.18 193.13,22.45 436.95,168.77 410.01,400.46 -56.78,488.46 -763.58,2136.7 -947.76,2442.77 -274.35,455.94 -301.59,540.38 -679.97,925.86 -196.74,200.43 -655.84,537.28 -1021.24,494.8zm3201.79 -5583.93c-141.64,-99.56 -319.06,-206.37 -493.96,-259.65 -433.62,-132.07 -825.98,-158.54 -1261.31,-102.25 -391.43,50.6 -708.11,155.31 -1059.56,305.5 -247.69,105.84 -874.4,470.44 -1101.48,675.26 -43.55,39.27 -47.7,53.57 -93.71,92.96 -293.48,251.15 -571.15,516.7 -824.4,813.9 -117.88,138.35 -215.34,267.31 -326.09,410.02 -55.83,71.95 -109.79,142.84 -158.56,222.42 -45.32,73.98 -97.23,160.02 -147.64,236.21 -99.29,150.07 -181.97,321.16 -261.98,491.01 -40.32,85.62 -74.99,177.58 -112.75,256.79 -45.96,96.36 -68.95,174.68 -110.24,283.45 -75.23,198.16 -138.99,371.58 -193.98,576.91 -58.4,218.13 -119.95,444.68 -147.59,682.43 -57.97,498.64 69.77,624.46 -304.39,860.13 -231.18,145.62 -533.39,329.18 -887.5,288.01 -389.8,-45.31 -89.61,-835.74 -29.31,-999.84l761.05 -1903.66c180.95,-457.43 431.03,-1029.04 490.53,-1540.85 70.24,-604.25 -87.11,-1132.43 -634.72,-1449.62 -1273.04,-737.37 -2872.14,432.33 -3898.65,1171.65 25.2,-216.73 143.34,-1134.01 79.01,-1215.26l-2832.43 241.27c155.02,338.53 406.49,1168.11 367.22,1505.96 -40.27,346.38 -107.61,608.49 -225.31,936.52l-557.35 1644.33c-32.64,101.87 -78.07,227.93 -110.73,329.8l-230.28 624.98c-149.02,323.37 -1190.36,906.32 -1546.22,864.95l-225.24 -26.18c-123.7,-14.38 -247.3,-193.54 -232.87,-317.62 72.3,-621.99 79.26,-489.11 263.45,-1029.27 149.61,-438.8 349.44,-890.76 512.54,-1325.18 82.59,-220.01 169.68,-455.63 263.66,-676.76 88.78,-208.9 169.15,-434.21 267.53,-648.36l274.06 -663.62c135.27,-320.57 299.44,-628.54 420.16,-948.73 44.29,-117.49 121.44,-206.83 146.56,-331.52l-2317.03 -11.89 -247.73 362.65c-102.35,-68.52 -203,-161.35 -500.8,-340.65 -784.33,-472.25 -2066.27,-113.33 -2744.04,283.87 -273.87,160.51 -546.91,324.07 -796.42,520.45 -688.73,542.03 -1451.71,1493.22 -1854.32,2237.03 -171.42,316.67 -321.44,632.74 -435.42,976.43 -59.02,178.01 -117.41,365.34 -168.6,561.98 -129.85,498.69 -129.4,592.56 -144.95,1083.76 -13.6,429.81 74.76,880.1 290.11,1220.47 484.38,765.59 1169.85,958.99 2028.23,863.64 575.62,-63.93 1180.82,-332.4 1650.72,-662.51l445.34 -353.33c357.32,-287.77 187.78,305.03 780.55,656.65 983.3,583.3 2143.89,-52.11 2926.2,-671.32 205.92,-162.99 395.63,-344.92 612.61,-494.3 -69.09,243.23 -108.01,368.99 -186.78,609.47 -35.72,109.06 -56.69,199.4 -91.53,307.09 -12.3,37.96 -26.4,98.77 -37.91,163.7 -9.54,53.72 -6.82,30.58 -9.94,61.93 -0.95,9.56 -1.14,62.01 -3.34,85.45 124.47,14.47 192.25,-16.33 294.97,-26.65 100.01,-10.05 206.29,-14.55 296.26,-25 610.18,-70.99 1243.4,-75.53 1838.78,-143.19 93.93,-261.66 402.6,-1463.87 510.94,-1820.39 132.53,-436.18 404.05,-1400.44 549.7,-1771.38 126.71,-322.63 427.66,-740.94 661.35,-996.34 93.51,-102.21 173.69,-195.58 272.29,-290.12 96.21,-92.25 172.51,-176.21 270.46,-268.94 220.2,-208.45 738.6,-563.6 1051.32,-527.24 307.22,70.24 458.06,165.75 406.69,607.61 -54.47,468.53 -483.24,1377.8 -664.73,1860.94 -176.33,469.46 -367.1,910.84 -514.22,1393.51 -159.25,522.49 -242.91,1045.74 95.02,1470.8 669.66,842.35 1850.96,429.38 2612.45,-23.61 272.96,-162.38 514.2,-370.55 756.97,-570.27 113.64,-93.45 150.96,-186.46 292.25,-241.41 78.81,67.14 89.74,111.12 134.95,209.21 272.5,591.1 796.92,978.28 1502.25,1060.28 268.35,31.2 679.59,3.01 889.75,-50.33 256.83,-65.17 494.53,-143.53 729.48,-252.74 60.11,-27.94 95.99,-51.27 156.8,-83.76 56.74,-30.32 109.04,-64.22 162.66,-99.82 53.89,-35.76 95.32,-61.12 146.77,-96.41 152.87,-104.9 466.1,-312.13 582.83,-438 54.38,-58.63 87.52,-74.55 160.26,-102.85 61.71,120.2 64.29,235.51 127.54,363.83 301.76,612.35 884.67,752.83 1524.54,666.16 432.63,-58.61 932.86,-315.54 1268.67,-581.49 265.49,-210.26 1115.57,-937.97 1283.55,-1267.19l-23.33 -334.76c-83.14,81.5 -364.89,245.16 -616.05,372.56 -340.86,172.9 -538.18,261.12 -905.39,218.44 -295.77,-34.39 -256.99,-288.69 -231.92,-504.28 52.04,-447.64 588.41,-1937.26 724.43,-2302.16l798.55 -2232.04c35.97,-97.88 67.7,-159.31 102.7,-269.5 206.24,-649.6 470.43,-1289.69 712.59,-1917.88l852.94 -2163.33c-157.27,-18.28 -276.53,-3.25 -399.98,11.4 -133.94,15.91 -272.1,22.29 -398.77,36.43l-1741.99 171.53c-269.06,32.14 -154.04,12.98 -284.08,463.08l-735.97 2240.61c-20.52,50.64 -47.43,102.38 -69.19,170.92 -59.52,187.48 -120.75,382.5 -217.56,547.11zm-31800 8443.78c491.97,-1547.82 1076.87,-3086.32 1625.43,-4616.13 648.9,-251.91 2084.54,-347.16 2458.65,-303.67 1207.99,140.43 1604.24,1082.69 967.54,2048.11 -520.91,789.86 -1275.57,1386.82 -2118.26,1846.15 -614.01,334.67 -2227.74,1044.85 -2933.36,1025.54zm-3203.65 -10645.22c-51.6,443.89 -77.78,1206.95 -26.62,1657.15 0.92,0.03 1330.73,-482.43 1502.22,-544.81 2406.38,-746.76 5097.77,-1572.61 7653.99,-1275.45 1402.3,163.02 1068.24,1275.49 394.35,2071.47 -823.88,973.14 -2486.91,1852.29 -3717.14,2162.05 -115.44,29.07 -224,58.66 -230.64,-63.42 -3.35,-61.63 64,-250.69 87.49,-305.33 266.02,-618.95 945.97,-2360.62 1023.56,-3028.03 -395.21,44.91 -2090.36,245.65 -3323.34,710.28 -170.15,492.9 -3180.97,9437.61 -3703.44,10116.58 -422.08,548.54 -1022.47,907.03 -1611.36,1252.34l-1824.9 982.61c389.73,45.3 1115.46,-4.37 1524.01,-24.13 2943.62,-142.32 5005.9,-709.83 7743.34,-1561.81 2199.82,-791.4 4672.78,-1914.01 5691.55,-4153.39 475.81,-1126.46 208.52,-2381.41 -847.44,-2997.36 -539.47,-314.63 -1274.52,-438.19 -1354.97,-488.96 61.8,-53.53 1514.54,-712.57 1651.19,-779.34 1517.05,-794.37 3379.29,-2859.8 2695.32,-4651.17 -172.29,-451.2 -603.23,-850.19 -1054.29,-1043.08 -1792.84,-766.72 -6009.97,-253.75 -8070.81,202.97 -741.77,164.36 -3195.81,910.62 -4000.63,1498.62 -90.9,66.41 -183.83,110.69 -201.44,262.21zm65352.59 7846.36c-174.23,-20.25 -293.32,-56.24 -396.94,-206.31 -160.66,-232.7 -72.12,-578.82 -36.9,-881.77 39.14,-336.68 254.12,-786.45 378.46,-1048.36 232.36,-489.41 820.96,-1206.49 1254.04,-1468.83 502.73,-304.53 1335.87,-629.35 1669.9,78.67 -61.97,153.79 -144.72,474.31 -213.88,609.72 -97.77,191.4 -164.56,370.97 -256.93,567.83l-278.27 540.88c-352.07,649.02 -823.93,1327.88 -1501.58,1672.81 -153.99,78.38 -381.22,162.88 -617.9,135.36zm2398.44 -5635.82c-522.19,-60.7 -1010.87,-20.48 -1456.68,109.21 -1583.28,460.56 -3123.06,1991.09 -3679.45,3548.1 -72.88,203.93 -479.3,1576.2 -410.58,1641.86 -109.04,151.79 -795.3,500.81 -997.95,477.25 -260.71,-30.31 -359.97,-116.88 -325.72,-411.42 64.44,-554.37 311.41,-954.03 480.12,-1436.6 102.45,-293.03 276.67,-614.65 375.83,-910.79 286.26,-855.07 951.32,-2000.74 48.62,-2830.81 -402.6,-370.2 -968.76,-393.5 -1489.06,-327.11 -216.93,27.68 -388.51,68.18 -582.71,132.86 -375.8,125.15 -668.56,270.84 -996.8,478.7 -89.06,56.4 -134.32,84.5 -215.78,150.14 -136.88,110.3 -303.87,200.08 -430.2,325.48 -362.19,359.53 -315.8,187.92 -305.85,-31.21 4.89,-107.32 -3.4,-236.46 0.3,-353.47 4.87,-154.08 19.31,-537.18 -25.61,-667.63 -351.77,-40.89 -1405.51,121.22 -1813.63,174.93 -232.01,30.53 -865.84,173.59 -1047.32,156.58 -4.06,34.9 560.71,710.73 491.93,1302.37 -53.31,458.64 -86.05,696.62 -231.21,1140.43 -349.15,1067.54 -710.03,2127.58 -1056.53,3197.74 -91.19,281.62 -373.03,1021.98 -404.97,1296.68l2338.59 -122.44c19.67,-169.21 68.46,-285.72 108.86,-426.07 346.37,-1203.27 1333.81,-5042.52 3102.92,-4886.91 202.88,17.84 625.02,107.5 470.5,594.28 -120.93,380.92 -792.21,2220.94 -951.64,2696.2 -216.51,645.46 -477.44,1439.65 123.89,1956.37 96.74,83.11 138.27,116.21 275.15,172.58 666.96,274.65 1432.6,72.45 1965.77,-198.73 211.57,-107.61 427.22,-229.1 618.84,-369.02 199.14,-145.41 359.43,-332.95 593.83,-424.12 116.05,98.92 159.76,253.38 242.59,384.28 369.2,583.46 1078.23,821.06 1751.71,772.69 631.5,-45.36 1308.66,-337.58 1800.82,-731.24 61.17,-48.94 408.71,-301.68 662.69,-518.89 -111.09,730.07 -804.65,2001.12 -1213.58,2500.14 -379.35,462.9 -1294.94,1389.18 -1995.08,1307.78 -320.1,-37.21 -557.37,-155.65 -543.83,-499.03 14.41,-365.8 350.87,-728.85 779.04,-988.6 -437.89,-137.9 -860.31,-110 -1080.03,-96.07 -952.85,60.38 -2072.56,963.89 -1472.12,1949.29 338.46,555.45 1183.74,747.86 1846.49,824.91 2330.79,270.96 4425.46,-1215.52 5407.43,-3244.18 1064.25,-2198.73 1931.42,-4905.69 2798.7,-7220.26 39.5,-104.78 170.27,-372.98 181.26,-452.06 -156.69,-18.21 -636.79,14.24 -792.52,32.24 -333.74,38.62 -1343.66,49.73 -1543.69,116.7 -101.66,34.03 -104.58,64.08 -156.49,154.89 -173.79,303.98 -389.5,-348.35 -1246.85,-448.02zm-28611.66 -773.51c-99.52,856.11 252.21,1511.28 810.32,2091.46 86.15,89.57 180.26,161.73 272.36,249.16 94.94,90.12 183.08,152.55 289.8,235.36 535.82,415.79 1308.39,892.59 1763.96,1355.05 678.21,688.46 131.44,1509.05 -545.58,1948.07 -108.31,70.24 -247.41,136.01 -376.02,182.59 -846.36,306.57 -2048.19,442.56 -2884.09,27.1 -286.21,-142.26 -296.55,-264.03 -411.56,-362.05 -500.02,890.81 -879.7,1267.9 -1655.67,1924.34 46.57,81.98 231.1,199.42 334.73,255.56 933.25,505.55 2566.31,587.09 3583.58,419.7 388.67,-63.95 702.41,-119.25 1087.01,-223.86 760.77,-206.92 1229.59,-346.68 1929.16,-757 263.34,-154.47 710.8,-435.5 919.47,-623.36 370.69,-348.18 641.17,-608.36 907.55,-1061.08 128.48,-218.34 340.06,-788.27 378.48,-1118.8 14.49,-124.66 2.3,-346.08 -6.92,-459.31 -17.84,-218.92 -3.36,-196.52 -70.44,-427.62 -187.69,-646.49 -559.4,-1095.93 -1049.79,-1530.03 -98.12,-86.86 -201.59,-156.8 -302.61,-243.8 -716.18,-616.76 -2086.87,-1186.22 -1957.54,-2298.7 53.94,-464.01 387.42,-872.08 784.6,-1075.49 725.98,-371.82 1232.9,-308.72 1981.1,-221.74 426.69,49.6 988.15,341.06 1126.78,725.4 46.7,129.5 121.01,291.5 105.64,455.52 163.35,-83.86 737.05,-833.48 891.96,-1033.82 200.36,-259.12 438.98,-565.33 619.44,-837.92 64.89,-98.02 163.86,-213.89 193.32,-295.93 -41.26,-80.36 -119.14,-155.63 -196.27,-216.46 -338.27,-266.78 -443.27,-307.23 -841.78,-467.65 -79.15,-31.87 -258.64,-74.33 -348.47,-95.95 -141.82,-34.14 -617.15,-126.34 -758.79,-121.45 -137.58,4.76 -280.76,-36.52 -417.44,-34.12 -677.56,11.92 -741.97,-12 -1446.57,74.98 -230.08,28.4 -449.68,58.79 -658.28,107.85 -200.81,47.26 -437.48,102.92 -626.02,172.09 -606.33,222.39 -1080.34,375.03 -1652.04,754.78 -47.2,31.34 -69.83,57.64 -116.95,87.13 -265.94,166.45 -575.61,451.13 -786.97,673.28 -73.39,77.13 -123.87,145.4 -192.35,226.7 -68.29,81.06 -125.33,157.21 -188.77,254.72 -98.24,151.01 -238.94,391.38 -295.45,566.14 -65.9,203.78 -166.52,492.31 -192.89,719.16zm9304.98 5647.41c80.31,-690.82 42.95,-601.93 262.3,-1289.02 163.07,-510.84 340.02,-814.76 602.79,-1258.17 185.16,-312.42 582.53,-679.49 887.85,-874.63 572,-365.62 1646.35,-290.72 1537.01,649.8 -78.62,676.34 -122.2,1039.66 -413.41,1661.77 -249.14,532.24 -527.48,1005.06 -927.97,1411.02 -239.59,242.87 -482.85,412.98 -806.51,531.2 -296.94,108.46 -737.48,121.29 -959.17,-158.73 -118.38,-149.56 -212.78,-416.12 -182.89,-673.24zm-2560.98 -463.75c-94.61,813.83 114.54,1604.11 731.02,2135.65 679.12,585.57 1464.21,786.13 2362.74,762.28 1292.39,-34.31 2134.78,-384.62 3171.36,-1137.08 451.74,-354.38 894.97,-882.52 1208.12,-1362.46 598.33,-917.02 1170.33,-2309.68 826.93,-3418.7 -181.93,-587.55 -557.56,-1057.79 -1140.11,-1328.36 -733.19,-340.59 -1531.54,-366.97 -2322.5,-296.3 -823.92,73.62 -1912.82,490.44 -2540.29,994.86 -979.3,683.87 -1864.85,1870.04 -2170.04,3035.89 -42.31,161.64 -104.94,422.5 -127.23,614.22z"/>
  </g>
  <rect class="fil2" x="-5" y="0.07" width="80000" height="18000"/>
 </g>
</svg>
