<svg width="1920" height="945" viewBox="0 0 1920 945" fill="none" xmlns="http://www.w3.org/2000/svg">
  <rect width="1920" height="945" rx="48" fill="#0F1115"/>
  <rect x="36" y="36" width="1848" height="873" rx="36" fill="#11161C" stroke="#2A313C" stroke-width="4"/>
  <rect x="84" y="84" width="300" height="777" rx="24" fill="#171D25"/>
  <rect x="420" y="84" width="1416" height="102" rx="24" fill="#171D25"/>
  <rect x="420" y="222" width="920" height="639" rx="24" fill="#141A22"/>
  <rect x="1376" y="222" width="460" height="639" rx="24" fill="#141A22"/>
  <rect x="456" y="258" width="280" height="22" rx="11" fill="#E7EEF7"/>
  <rect x="456" y="304" width="716" height="16" rx="8" fill="#6C7A8B"/>
  <rect x="456" y="344" width="654" height="16" rx="8" fill="#6C7A8B"/>
  <rect x="456" y="384" width="742" height="16" rx="8" fill="#6C7A8B"/>
  <rect x="456" y="472" width="360" height="18" rx="9" fill="#00C45A"/>
  <rect x="456" y="522" width="560" height="16" rx="8" fill="#6C7A8B"/>
  <rect x="456" y="562" width="480" height="16" rx="8" fill="#6C7A8B"/>
  <rect x="1412" y="258" width="190" height="20" rx="10" fill="#E7EEF7"/>
  <rect x="1412" y="304" width="228" height="112" rx="20" fill="#18222A"/>
  <rect x="1412" y="440" width="228" height="112" rx="20" fill="#18222A"/>
  <rect x="1412" y="576" width="228" height="112" rx="20" fill="#18222A"/>
  <rect x="120" y="140" width="176" height="16" rx="8" fill="#E7EEF7"/>
  <rect x="120" y="194" width="224" height="14" rx="7" fill="#6C7A8B"/>
  <rect x="120" y="244" width="196" height="14" rx="7" fill="#6C7A8B"/>
  <rect x="120" y="294" width="214" height="14" rx="7" fill="#6C7A8B"/>
</svg>
