<svg width="1920" height="945" viewBox="0 0 1920 945" fill="none" xmlns="http://www.w3.org/2000/svg">
  <rect width="1920" height="945" rx="48" fill="#101116"/>
  <rect x="40" y="40" width="1840" height="865" rx="36" fill="#12161C" stroke="#2A313C" stroke-width="4"/>
  <rect x="92" y="92" width="1736" height="110" rx="24" fill="#171D25"/>
  <rect x="92" y="238" width="1080" height="615" rx="24" fill="#151B22"/>
  <rect x="1208" y="238" width="620" height="615" rx="24" fill="#151B22"/>
  <rect x="130" y="128" width="248" height="22" rx="11" fill="#F2F7F3"/>
  <rect x="130" y="168" width="390" height="14" rx="7" fill="#83909C"/>
  <rect x="128" y="278" width="1008" height="94" rx="20" fill="#1A222B"/>
  <rect x="128" y="392" width="1008" height="94" rx="20" fill="#1A222B"/>
  <rect x="128" y="506" width="1008" height="94" rx="20" fill="#1A222B"/>
  <rect x="128" y="620" width="1008" height="94" rx="20" fill="#1A222B"/>
  <rect x="128" y="734" width="1008" height="82" rx="20" fill="#00C45A" fill-opacity="0.18" stroke="#00C45A" stroke-width="4"/>
  <rect x="156" y="308" width="180" height="18" rx="9" fill="#F2F7F3"/>
  <rect x="156" y="422" width="160" height="18" rx="9" fill="#F2F7F3"/>
  <rect x="156" y="536" width="210" height="18" rx="9" fill="#F2F7F3"/>
  <rect x="156" y="650" width="190" height="18" rx="9" fill="#F2F7F3"/>
  <rect x="156" y="762" width="220" height="18" rx="9" fill="#E8FFE7"/>
  <rect x="1244" y="278" width="548" height="44" rx="22" fill="#1A222B"/>
  <rect x="1244" y="350" width="548" height="44" rx="22" fill="#1A222B"/>
  <rect x="1244" y="422" width="548" height="44" rx="22" fill="#1A222B"/>
  <rect x="1244" y="494" width="548" height="44" rx="22" fill="#1A222B"/>
</svg>
