<svg width="1920" height="945" viewBox="0 0 1920 945" fill="none" xmlns="http://www.w3.org/2000/svg">
  <rect width="1920" height="945" rx="48" fill="#090A0D"/>
  <rect x="42" y="42" width="1836" height="861" rx="36" fill="#0D0F14" stroke="#2D3744" stroke-width="4"/>
  <rect x="116" y="120" width="1688" height="120" rx="28" fill="#12161D"/>
  <rect x="116" y="288" width="1688" height="492" rx="32" fill="#11161D"/>
  <rect x="116" y="816" width="1688" height="52" rx="26" fill="#12161D"/>
  <rect x="174" y="164" width="252" height="26" rx="13" fill="#EBF6EC"/>
  <rect x="1498" y="160" width="248" height="36" rx="18" fill="#00C45A" fill-opacity="0.2" stroke="#00C45A" stroke-width="4"/>
  <rect x="176" y="350" width="1010" height="26" rx="13" fill="#F5FBF6"/>
  <rect x="176" y="408" width="888" height="18" rx="9" fill="#8A97A3"/>
  <rect x="176" y="454" width="938" height="18" rx="9" fill="#8A97A3"/>
  <rect x="176" y="500" width="994" height="18" rx="9" fill="#8A97A3"/>
  <rect x="176" y="578" width="302" height="20" rx="10" fill="#00C45A"/>
  <rect x="176" y="626" width="520" height="18" rx="9" fill="#8A97A3"/>
  <rect x="1244" y="348" width="500" height="340" rx="28" fill="#171D25"/>
  <rect x="1280" y="390" width="202" height="18" rx="9" fill="#EBF6EC"/>
  <rect x="1280" y="438" width="428" height="16" rx="8" fill="#8A97A3"/>
  <rect x="1280" y="478" width="392" height="16" rx="8" fill="#8A97A3"/>
  <rect x="1280" y="518" width="416" height="16" rx="8" fill="#8A97A3"/>
</svg>
